<?xml version="1.0" encoding="UTF-8"?>
<svg id="Layer_1" xmlns="http://www.w3.org/2000/svg" xmlns:xlink="http://www.w3.org/1999/xlink" version="1.1" viewBox="0 0 120 120">
  <!-- Generator: Adobe Illustrator 29.7.1, SVG Export Plug-In . SVG Version: 2.1.1 Build 8)  -->
  <defs>
    <style>
      .st0 {
        fill: none;
      }

      .st1 {
        fill: #f28e00;
      }

      .st2 {
        fill: #fff;
      }

      .st3 {
        clip-path: url(#clippath);
      }
    </style>
    <clipPath id="clippath">
      <rect class="st0" width="120" height="120"/>
    </clipPath>
  </defs>
  <g class="st3">
    <g>
      <path class="st1" d="M120.03.77H.03v120h120V.77Z"/>
      <path class="st2" d="M47.9,33.5l-5.17,5.53-7.73-1.37-2.33-7.8,7.5,1.37,5.17-5.73,2.53,8h.03ZM35.73,36.83l6.17,1.1-1.9-5.8-6-1.1,1.73,5.8ZM40.9,31.83l1.9,5.8,4.07-4.37-1.9-5.97-4.07,4.53Z"/>
      <path class="st2" d="M62.97,30.33l-6.43,4-7.1-3.33-.2-8.13,6.87,3.27,6.5-4.2.33,8.4h.03ZM50.37,30.37l5.67,2.67-.3-6.1-5.5-2.63.13,6.07ZM56.63,26.9l.3,6.1,5.1-3.17-.27-6.23-5.13,3.3Z"/>
      <path class="st2" d="M75.43,24.87l-7.47,1.27-5.3-5.77,2.9-7.6,5.1,5.63,7.6-1.43-2.87,7.9h.03ZM63.77,20.17l4.2,4.6,2.03-5.77-4.1-4.5-2.17,5.67h.03ZM70.9,19.3l-2.03,5.73,5.9-1,2.13-5.87-6,1.13Z"/>
      <path class="st2" d="M80.4,38.7l-6.5-3.83-.3-7.8,7.13-3.9.23,7.6,6.73,3.8-7.3,4.17v-.03ZM74.53,27.6l.23,6.23,5.3-3.07-.2-6.07-5.33,2.93v-.03ZM80.53,31.53l-5.3,3.07,5.17,3.03,5.43-3.1-5.3-3Z"/>
      <path class="st2" d="M73.97,44.77l-7.33,1.9-5.77-5.3,2.27-7.8,5.57,5.17,7.47-2.07-2.2,8.1ZM61.93,41.07l4.6,4.23,1.53-5.9-4.47-4.13-1.67,5.83v-.03ZM68.97,39.63l-1.53,5.9,5.8-1.5,1.63-6.03-5.9,1.63Z"/>
      <path class="st2" d="M55.3,39.73l-2.73,7.03-7.7,1.53-5.03-6.4,7.47-1.47,2.67-7.23,5.33,6.5v.03ZM45.23,47.27l6.13-1.23-3.9-4.7-6,1.17,3.77,4.77ZM48.17,40.73l3.9,4.7,2.17-5.57-3.97-4.83-2.13,5.7h.03Z"/>
      <path class="st2" d="M66.17,55.4l-6.2,3.37v12.67h-.93v-12.67l-6.43-3.5.3-8.13,6.67,3.67,6.73-3.8-.17,8.4h.03ZM53.57,54.73l5.5,3,.07-6.1-5.33-2.93-.2,6.07-.03-.03ZM60.03,51.6l-.07,6.1,5.27-2.87.1-6.23-5.3,3Z"/>
    </g>
  </g>
</svg>