<?xml version="1.0" encoding="UTF-8"?>
<svg id="Layer_1" xmlns="http://www.w3.org/2000/svg" xmlns:xlink="http://www.w3.org/1999/xlink" version="1.1" viewBox="0 0 120 120">
  <!-- Generator: Adobe Illustrator 29.7.1, SVG Export Plug-In . SVG Version: 2.1.1 Build 8)  -->
  <defs>
    <style>
      .st0 {
        fill: none;
      }

      .st1 {
        fill: #fff;
      }

      .st2 {
        fill: #e08e00;
      }

      .st3 {
        clip-path: url(#clippath);
      }
    </style>
    <clipPath id="clippath">
      <rect class="st0" x="6.36" width="120" height="120"/>
    </clipPath>
  </defs>
  <g class="st3">
    <g>
      <path class="st1" d="M120,1.13H1.08v117.49h118.92V1.13Z"/>
      <path class="st2" d="M48.74,48.09l-8.45,7.98-12.65-1.97-3.82-11.25,12.27,1.97,8.45-8.27,4.15,11.54h.05ZM28.83,52.83l10.09,1.59-3.11-8.37-9.82-1.59,2.84,8.37ZM37.29,45.61l3.11,8.37,6.65-6.3-3.11-8.61-6.65,6.54Z"/>
      <path class="st2" d="M68.43,80.38l-10.53,5.77-11.62-4.81-.33-11.74,11.24,4.71,10.64-6.06.55,12.12h.05ZM47.81,80.53l9.27,3.85-.49-8.8-9-3.8.22,8.75ZM58.07,75.53l.49,8.8,8.35-4.57-.44-8.99-8.4,4.76Z"/>
      <path class="st2" d="M87.9,52.49l-12.22,1.83-8.67-8.32,4.75-10.97,8.35,8.13,12.44-2.07-4.69,11.4h.05ZM68.81,45.15l6.87,6.64,3.33-8.32-6.71-6.49-3.55,8.18h.05ZM80.49,44.24l-3.33,8.27,9.65-1.44,3.49-8.47-9.82,1.64Z"/>
    </g>
  </g>
</svg>