<svg width="19" height="14" viewBox="0 0 19 14" fill="none" xmlns="http://www.w3.org/2000/svg">
<path d="M18 12.001C18.5523 12.001 19 12.4487 19 13.001C18.9997 13.553 18.5521 14.001 18 14.001H1C0.447878 14.001 0.000263794 13.553 0 13.001C0 12.4487 0.447715 12.001 1 12.001H18ZM18 6C18.5522 6 18.9999 6.44783 19 7C19 7.55228 18.5523 8 18 8H1C0.447715 8 0 7.55228 0 7C0.00013192 6.44783 0.447797 6 1 6H18ZM18 0C18.5523 0 19 0.447715 19 1C19 1.55228 18.5523 2 18 2H1C0.447715 2 0 1.55228 0 1C0 0.447715 0.447715 0 1 0H18Z" fill="currentColor"/>
</svg>
