<svg width="20" height="20" viewBox="0 0 20 20" fill="none" xmlns="http://www.w3.org/2000/svg">
<path d="M18.5366 10C18.5366 5.28537 14.7146 1.46341 10 1.46341C5.28537 1.46341 1.46341 5.28537 1.46341 10C1.46341 14.7146 5.28537 18.5366 10 18.5366C14.7146 18.5366 18.5366 14.7146 18.5366 10ZM20 10C20 15.5228 15.5228 20 10 20C4.47715 20 0 15.5228 0 10C0 4.47715 4.47715 0 10 0C15.5228 0 20 4.47715 20 10Z" fill="currentColor"/>
<path d="M9.26831 5.36574C9.26831 4.96163 9.59591 4.63403 10 4.63403C10.4041 4.63403 10.7317 4.96163 10.7317 5.36574V9.69691L13.2975 12.2627C13.5832 12.5484 13.5832 13.0116 13.2975 13.2973C13.0117 13.5831 12.5485 13.5831 12.2628 13.2973L9.48268 10.5172C9.34546 10.38 9.26831 10.1939 9.26831 9.99989V5.36574Z" fill="currentColor"/>
</svg>
