<svg width="21" height="20" viewBox="0 0 21 20" fill="none" xmlns="http://www.w3.org/2000/svg">
<path d="M19.0476 9.7618C19.0476 7.94624 19.0454 6.65642 18.9137 5.67791C18.7847 4.72006 18.5437 4.16722 18.1408 3.76385C17.7381 3.36076 17.1858 3.11891 16.2277 2.99004C15.249 2.85841 13.9588 2.85704 12.1429 2.85704H8.33333C6.51777 2.85704 5.22795 2.85928 4.24944 2.99097C3.29159 3.11992 2.73876 3.36092 2.33538 3.76385C1.9323 4.16659 1.69044 4.71882 1.56157 5.67698C1.42994 6.65568 1.42857 7.94589 1.42857 9.7618V11.6666C1.42857 13.4821 1.43081 14.7719 1.5625 15.7505C1.69145 16.7083 1.93246 17.2611 2.33538 17.6645C2.73812 18.0676 3.29036 18.3095 4.24851 18.4383C5.22721 18.57 6.51742 18.5713 8.33333 18.5713H12.1429C13.9584 18.5713 15.2482 18.5691 16.2267 18.4374C17.1846 18.3084 17.7374 18.0674 18.1408 17.6645C18.5439 17.2618 18.7857 16.7095 18.9146 15.7514C19.0462 14.7727 19.0476 13.4825 19.0476 11.6666V9.7618ZM20.4762 11.6666C20.4762 13.4421 20.4776 14.846 20.3302 15.942C20.18 17.0584 19.8637 17.9622 19.1509 18.6746C18.4381 19.3867 17.5339 19.7036 16.4174 19.8539C15.3215 20.0014 13.9183 19.9999 12.1429 19.9999H8.33333C6.55782 19.9999 5.15391 20.0013 4.05785 19.8539C2.9415 19.7037 2.03774 19.3875 1.32534 18.6746C0.613148 17.9618 0.296331 17.0576 0.14602 15.9411C-0.00146962 14.8452 5.61711e-07 13.442 5.61711e-07 11.6666V9.7618C5.61711e-07 7.98629 -0.00139605 6.58238 0.14602 5.48632C0.296198 4.36996 0.612442 3.46621 1.32534 2.7538C2.03813 2.04162 2.94227 1.7248 4.05878 1.57449C5.15468 1.427 6.55793 1.42847 8.33333 1.42847H12.1429C13.9184 1.42847 15.3223 1.42707 16.4183 1.57449C17.5347 1.72467 18.4385 2.04091 19.1509 2.7538C19.863 3.4666 20.1799 4.37074 20.3302 5.48725C20.4777 6.58315 20.4762 7.9864 20.4762 9.7618V11.6666Z" fill="currentColor"/>
<path d="M19.2857 6.19048C19.6802 6.19048 20 6.51027 20 6.90476C20 7.29925 19.6802 7.61905 19.2857 7.61905H1.19048C0.795993 7.61905 0.476196 7.29925 0.476196 6.90476C0.476196 6.51027 0.795993 6.19048 1.19048 6.19048H19.2857ZM4.76191 2.14286V0.714286C4.76191 0.319797 5.08171 0 5.4762 0C5.87068 0 6.19048 0.319797 6.19048 0.714286V2.14286C6.19048 2.53735 5.87068 2.85714 5.4762 2.85714C5.08171 2.85714 4.76191 2.53735 4.76191 2.14286ZM14.2857 2.14286V0.714286C14.2857 0.319797 14.6055 0 15 0C15.3945 0 15.7143 0.319797 15.7143 0.714286V2.14286C15.7143 2.53735 15.3945 2.85714 15 2.85714C14.6055 2.85714 14.2857 2.53735 14.2857 2.14286Z" fill="currentColor"/>
<path d="M15.9524 14.5239C15.9524 14.7765 15.852 15.0187 15.6734 15.1973C15.4948 15.3759 15.2526 15.4762 15 15.4762C14.7474 15.4762 14.5052 15.3759 14.3266 15.1973C14.148 15.0187 14.0476 14.7765 14.0476 14.5239C14.0476 14.2713 14.148 14.029 14.3266 13.8504C14.5052 13.6718 14.7474 13.5715 15 13.5715C15.2526 13.5715 15.4948 13.6718 15.6734 13.8504C15.852 14.029 15.9524 14.2713 15.9524 14.5239ZM15.9524 10.7143C15.9524 10.9669 15.852 11.2092 15.6734 11.3878C15.4948 11.5664 15.2526 11.6667 15 11.6667C14.7474 11.6667 14.5052 11.5664 14.3266 11.3878C14.148 11.2092 14.0476 10.9669 14.0476 10.7143C14.0476 10.4618 14.148 10.2195 14.3266 10.0409C14.5052 9.8623 14.7474 9.76196 15 9.76196C15.2526 9.76196 15.4948 9.8623 15.6734 10.0409C15.852 10.2195 15.9524 10.4618 15.9524 10.7143ZM11.1905 14.5239C11.1905 14.7765 11.0901 15.0187 10.9115 15.1973C10.7329 15.3759 10.4907 15.4762 10.2381 15.4762C9.9855 15.4762 9.74326 15.3759 9.56465 15.1973C9.38605 15.0187 9.28571 14.7765 9.28571 14.5239C9.28571 14.2713 9.38605 14.029 9.56465 13.8504C9.74326 13.6718 9.9855 13.5715 10.2381 13.5715C10.4907 13.5715 10.7329 13.6718 10.9115 13.8504C11.0901 14.029 11.1905 14.2713 11.1905 14.5239ZM11.1905 10.7143C11.1905 10.9669 11.0901 11.2092 10.9115 11.3878C10.7329 11.5664 10.4907 11.6667 10.2381 11.6667C9.9855 11.6667 9.74326 11.5664 9.56465 11.3878C9.38605 11.2092 9.28571 10.9669 9.28571 10.7143C9.28571 10.4618 9.38605 10.2195 9.56465 10.0409C9.74326 9.8623 9.9855 9.76196 10.2381 9.76196C10.4907 9.76196 10.7329 9.8623 10.9115 10.0409C11.0901 10.2195 11.1905 10.4618 11.1905 10.7143ZM6.42857 14.5239C6.42857 14.7765 6.32823 15.0187 6.14962 15.1973C5.97101 15.3759 5.72877 15.4762 5.47618 15.4762C5.2236 15.4762 4.98136 15.3759 4.80275 15.1973C4.62414 15.0187 4.5238 14.7765 4.5238 14.5239C4.5238 14.2713 4.62414 14.029 4.80275 13.8504C4.98136 13.6718 5.2236 13.5715 5.47618 13.5715C5.72877 13.5715 5.97101 13.6718 6.14962 13.8504C6.32823 14.029 6.42857 14.2713 6.42857 14.5239ZM6.42857 10.7143C6.42857 10.9669 6.32823 11.2092 6.14962 11.3878C5.97101 11.5664 5.72877 11.6667 5.47618 11.6667C5.2236 11.6667 4.98136 11.5664 4.80275 11.3878C4.62414 11.2092 4.5238 10.9669 4.5238 10.7143C4.5238 10.4618 4.62414 10.2195 4.80275 10.0409C4.98136 9.8623 5.2236 9.76196 5.47618 9.76196C5.72877 9.76196 5.97101 9.8623 6.14962 10.0409C6.32823 10.2195 6.42857 10.4618 6.42857 10.7143Z" fill="currentColor"/>
</svg>
